<svg width="24" xmlns="http://www.w3.org/2000/svg" height="24" id="screenshot-55634281-7241-808a-8003-ef3c5cfdc801" viewBox="0 0 24 24" xmlns:xlink="http://www.w3.org/1999/xlink" fill="none" version="1.1"><g id="shape-55634281-7241-808a-8003-ef3c5cfdc801"><g class="frame-container-wrapper"><g class="frame-container-blur"><g class="frame-container-shadows"><g fill="none"><g class="fills" id="fills-55634281-7241-808a-8003-ef3c5cfdc801"><rect rx="0" ry="0" x="0" y="0" width="23.999999999999886" height="23.999999999999886" transform="matrix(1.000000, 0.000000, 0.000000, 1.000000, 0.000000, 0.000000)" class="frame-background"/></g><g class="frame-children"><g id="shape-55634281-7241-808a-8003-ef3c5cfe3038" style="display: none;"><g class="fills" id="fills-55634281-7241-808a-8003-ef3c5cfe3038"><rect width="23.999999999999886" height="23.999999999999886" x="0" transform="matrix(1.000000, 0.000000, 0.000000, 1.000000, 0.000000, 0.000000)" style="fill: none;" ry="0" fill="none" rx="0" y="0"/></g></g><g id="shape-55634281-7241-808a-8003-ef3c5cfe56e7" rx="0" ry="0" style="fill: rgb(0, 0, 0);"><g id="shape-55634281-7241-808a-8003-ef3c5cfe9bb7"><g class="fills" id="fills-55634281-7241-808a-8003-ef3c5cfe9bb7"><path d="M19,12.75L8,12.75C7.585784912109375,12.75,7.25,12.4141845703125,7.25,12C7.25,11.5858154296875,7.585784912109375,11.25,8,11.25L19,11.25C19.4141845703125,11.25,19.75,11.5858154296875,19.75,12C19.75,12.4141845703125,19.4141845703125,12.75,19,12.75Z"/></g></g><g id="shape-55634281-7241-808a-8003-ef3c5cfe9bb8"><g class="fills" id="fills-55634281-7241-808a-8003-ef3c5cfe9bb8"><path d="M19,8.25L8,8.25C7.585784912109375,8.25,7.25,7.9141845703125,7.25,7.5C7.25,7.0858154296875,7.585784912109375,6.75,8,6.75L19,6.75C19.4141845703125,6.75,19.75,7.0858154296875,19.75,7.5C19.75,7.9141845703125,19.4141845703125,8.25,19,8.25Z"/></g></g><g id="shape-55634281-7241-808a-8003-ef3c5cfee8aa"><g class="fills" id="fills-55634281-7241-808a-8003-ef3c5cfee8aa"><path d="M19,17.25L8,17.25C7.585784912109375,17.25,7.25,16.9141845703125,7.25,16.5C7.25,16.0858154296875,7.585784912109375,15.75,8,15.75L19,15.75C19.4141845703125,15.75,19.75,16.0858154296875,19.75,16.5C19.75,16.9141845703125,19.4141845703125,17.25,19,17.25Z"/></g></g><g id="shape-55634281-7241-808a-8003-ef3c5cff62ed"><g class="fills" id="fills-55634281-7241-808a-8003-ef3c5cff62ed"><path d="M5,8.5C4.8699951171875,8.5015869140625,4.74090576171875,8.47784423828125,4.6199951171875,8.42999267578125C4.500518798828125,8.37200927734375,4.389495849609375,8.2979736328125,4.290008544921875,8.21002197265625C4.102813720703125,8.02130126953125,3.99847412109375,7.76580810546875,4,7.5C4.003692626953125,7.2352294921875,4.107269287109375,6.98162841796875,4.290008544921875,6.78997802734375C4.383880615234375,6.6973876953125,4.496368408203125,6.62579345703125,4.6199951171875,6.58001708984375C4.86346435546875,6.47998046875,5.13653564453125,6.47998046875,5.3800048828125,6.58001708984375C5.50274658203125,6.62762451171875,5.614898681640625,6.698974609375,5.709991455078125,6.78997802734375C5.892730712890625,6.98162841796875,5.996307373046875,7.2352294921875,6,7.5C6.00152587890625,7.76580810546875,5.897186279296875,8.02130126953125,5.709991455078125,8.21002197265625C5.610504150390625,8.2979736328125,5.499481201171875,8.37200927734375,5.3800048828125,8.42999267578125C5.25909423828125,8.47784423828125,5.1300048828125,8.5015869140625,5,8.5Z"/></g></g><g id="shape-55634281-7241-808a-8003-ef3c5cff8a96"><g class="fills" id="fills-55634281-7241-808a-8003-ef3c5cff8a96"><path d="M5,13C4.86932373046875,12.9984130859375,4.740234375,12.97125244140625,4.6199951171875,12.91998291015625C4.498809814453125,12.869384765625,4.38720703125,12.79833984375,4.290008544921875,12.71002197265625C4.102813720703125,12.52130126953125,3.99847412109375,12.26580810546875,4,12C4.003692626953125,11.7352294921875,4.107269287109375,11.48162841796875,4.290008544921875,11.28997802734375C4.38720703125,11.20166015625,4.498809814453125,11.130615234375,4.6199951171875,11.08001708984375C4.801025390625,10.99609375,5.003021240234375,10.96820068359375,5.20001220703125,11L5.3800048828125,11.05999755859375L5.55999755859375,11.1500244140625C5.612396240234375,11.18695068359375,5.6624755859375,11.22698974609375,5.709991455078125,11.27001953125C5.8974609375,11.4666748046875,6.001434326171875,11.72833251953125,6,12C6,12.55230712890625,5.552276611328125,13,5,13Z"/></g></g><g id="shape-55634281-7241-808a-8003-ef3c5cffef0d"><g class="fills" id="fills-55634281-7241-808a-8003-ef3c5cffef0d"><path d="M5,17.5C4.8699951171875,17.5015869140625,4.74090576171875,17.47784423828125,4.6199951171875,17.42999267578125C4.500518798828125,17.37200927734375,4.389495849609375,17.2979736328125,4.290008544921875,17.21002197265625C4.20166015625,17.11279296875,4.130645751953125,17.00115966796875,4.079986572265625,16.8800048828125C3.9730224609375,16.637939453125,3.9730224609375,16.362060546875,4.079986572265625,16.1199951171875C4.130645751953125,15.99884033203125,4.20166015625,15.88720703125,4.290008544921875,15.78997802734375C4.57757568359375,15.5062255859375,5.007598876953125,15.42340087890625,5.3800048828125,15.58001708984375C5.50274658203125,15.62762451171875,5.614898681640625,15.698974609375,5.709991455078125,15.78997802734375C5.79833984375,15.88720703125,5.869354248046875,15.99884033203125,5.920013427734375,16.1199951171875C6.0269775390625,16.362060546875,6.0269775390625,16.637939453125,5.920013427734375,16.8800048828125C5.869354248046875,17.00115966796875,5.79833984375,17.11279296875,5.709991455078125,17.21002197265625C5.521270751953125,17.397216796875,5.26580810546875,17.50152587890625,5,17.5Z"/></g></g></g></g></g></g></g></g></g></svg>