<svg width="24" xmlns="http://www.w3.org/2000/svg" height="24" id="screenshot-55634281-7241-808a-8003-ef3c5bf6e962" viewBox="0 0 24 24" xmlns:xlink="http://www.w3.org/1999/xlink" fill="none" version="1.1"><g id="shape-55634281-7241-808a-8003-ef3c5bf6e962"><g class="frame-container-wrapper"><g class="frame-container-blur"><g class="frame-container-shadows"><g fill="none"><g class="fills" id="fills-55634281-7241-808a-8003-ef3c5bf6e962"><rect rx="0" ry="0" x="0" y="0" width="24" height="24" transform="matrix(1.000000, 0.000000, 0.000000, 1.000000, 0.000000, 0.000000)" class="frame-background"/></g><g class="frame-children"><g id="shape-55634281-7241-808a-8003-ef3c5bf6e963" style="display: none;"><g class="fills" id="fills-55634281-7241-808a-8003-ef3c5bf6e963"><rect width="24" height="24" x="0" transform="matrix(1.000000, 0.000000, 0.000000, 1.000000, 0.000000, 0.000000)" style="fill: none;" ry="0" fill="none" rx="0" y="0"/></g></g><g id="shape-55634281-7241-808a-8003-ef3c5bf7076f" rx="0" ry="0" style="fill: rgb(0, 0, 0);"><g id="shape-55634281-7241-808a-8003-ef3c5bf7450b"><g class="fills" id="fills-55634281-7241-808a-8003-ef3c5bf7450b"><path d="M4.25,17.31005859375C4.0042572021484375,17.314208984375,3.77203369140625,17.19775390625,3.62841796875,16.998291015625C3.48480224609375,16.798828125,3.4480438232421875,16.541748046875,3.529998779296875,16.31005859375L4.779998779296875,12.18994140625C4.5243682861328125,11.4876708984375,4.389129638671875,10.747314453125,4.3800048828125,10C4.378021240234375,9.137451171875,4.551544189453125,8.283447265625,4.8899993896484375,7.489990234375C5.723114013671875,5.505859375,7.4869232177734375,4.064697265625,9.59735107421875,3.643798828125C11.707778930664062,3.222900390625,13.889480590820312,3.877197265625,15.419998168945312,5.3900146484375C16.004898071289062,5.9842529296875,16.473007202148438,6.6829833984375,16.800003051757812,7.449951171875C17.471145629882812,9.049072265625,17.471145629882812,10.8509521484375,16.800003051757812,12.449951171875C16.473007202148438,13.217041015625,16.004898071289062,13.915771484375,15.419998168945312,14.510009765625C13.629425048828125,16.29736328125,10.962326049804688,16.8792724609375,8.589996337890625,16L4.470001220703125,17.280029296875C4.398345947265625,17.2998046875,4.3243408203125,17.3099365234375,4.25,17.31005859375ZM10.839996337890625,5C10.176910400390625,4.998046875,9.52032470703125,5.1307373046875,8.910003662109375,5.3900146484375C7.7276611328125,5.888916015625,6.782440185546875,6.823486328125,6.2700042724609375,8C5.7505340576171875,9.2376708984375,5.7505340576171875,10.63232421875,6.2700042724609375,11.8699951171875C6.3295745849609375,12.0347900390625,6.3295745849609375,12.2152099609375,6.2700042724609375,12.3800048828125L5.350006103515625,15.3800048828125L8.350006103515625,14.4599609375C8.514785766601562,14.400390625,8.695220947265625,14.400390625,8.860000610351562,14.4599609375C11.386810302734375,15.5093994140625,14.287826538085938,14.3330078125,15.3699951171875,11.8199462890625C15.963851928710938,10.302001953125,15.78045654296875,8.5897216796875,14.878570556640625,7.23193359375C13.9766845703125,5.8741455078125,12.469528198242188,5.0411376953125,10.839996337890625,5Z"/></g></g><g id="shape-55634281-7241-808a-8003-ef3c5bf7cd86"><g class="fills" id="fills-55634281-7241-808a-8003-ef3c5bf7cd86"><path d="M19.75,20.5C19.676986694335938,20.509765625,19.603012084960938,20.509765625,19.529998779296875,20.5L15.410003662109375,19.25C12.194183349609375,20.4642333984375,8.592529296875,18.93017578125,7.2400054931640625,15.77001953125C7.150054931640625,15.5880126953125,7.1399078369140625,15.3768310546875,7.212005615234375,15.1871337890625C7.284088134765625,14.9974365234375,7.431915283203125,14.8463134765625,7.6199951171875,14.77001953125C7.802764892578125,14.68603515625,8.011627197265625,14.678955078125,8.199661254882812,14.7503662109375C8.3876953125,14.82177734375,8.539154052734375,14.9658203125,8.6199951171875,15.1500244140625C8.857696533203125,15.7164306640625,9.196548461914062,16.2349853515625,9.6199951171875,16.6800537109375C11.053695678710938,18.097900390625,13.198822021484375,18.5159912109375,15.05999755859375,17.739990234375C15.224777221679688,17.680419921875,15.40521240234375,17.680419921875,15.57000732421875,17.739990234375L18.57000732421875,18.6600341796875L17.649993896484375,15.6600341796875C17.590423583984375,15.4952392578125,17.590423583984375,15.3148193359375,17.649993896484375,15.1500244140625C17.909255981445312,14.5396728515625,18.04193115234375,13.883056640625,18.039993286132812,13.219970703125C18.044784545898438,11.9033203125,17.522659301757812,10.639404296875,16.589996337890625,9.7099609375C16.387680053710938,9.454345703125,16.163497924804688,9.216796875,15.919998168945312,9C15.681793212890625,8.8570556640625,15.542083740234375,8.59423828125,15.556930541992188,8.3167724609375C15.57177734375,8.0394287109375,15.738754272460938,7.79296875,15.990859985351562,7.67626953125C16.242965698242188,7.5595703125,16.538925170898438,7.591796875,16.759994506835938,7.760009765625C17.117706298828125,7.990966796875,17.452560424804688,8.2554931640625,17.759994506835938,8.550048828125C18.348114013671875,9.1416015625,18.816665649414062,9.841064453125,19.139999389648438,10.6099853515625C19.479248046875,11.40673828125,19.65277099609375,12.2640380859375,19.649993896484375,13.1300048828125C19.647903442382812,13.8974609375,19.512557983398438,14.6588134765625,19.25,15.3800048828125L20.5,19.5C20.58197021484375,19.731689453125,20.545196533203125,19.9888916015625,20.401580810546875,20.1883544921875C20.257965087890625,20.3878173828125,20.025741577148438,20.5042724609375,19.779998779296875,20.5Z"/></g></g></g></g></g></g></g></g></g></svg>