<svg width="24" xmlns="http://www.w3.org/2000/svg" height="24" id="screenshot-55634281-7241-808a-8003-ef3c5f2c57cb" viewBox="0 0 24 24" xmlns:xlink="http://www.w3.org/1999/xlink" fill="none" version="1.1"><g id="shape-55634281-7241-808a-8003-ef3c5f2c57cb"><g class="frame-container-wrapper"><g class="frame-container-blur"><g class="frame-container-shadows"><g fill="none"><g class="fills" id="fills-55634281-7241-808a-8003-ef3c5f2c57cb"><rect rx="0" ry="0" x="0" y="0" width="24" height="24" transform="matrix(1.000000, 0.000000, 0.000000, 1.000000, 0.000000, 0.000000)" class="frame-background"/></g><g class="frame-children"><g id="shape-55634281-7241-808a-8003-ef3c5f2cb1e9" style="display: none;"><g class="fills" id="fills-55634281-7241-808a-8003-ef3c5f2cb1e9"><rect width="24" height="24" x="0" transform="matrix(1.000000, 0.000000, 0.000000, 1.000000, 0.000000, 0.000000)" style="fill: none;" ry="0" fill="none" rx="0" y="0"/></g></g><g id="shape-55634281-7241-808a-8003-ef3c5f2d1894" rx="0" ry="0" style="fill: rgb(0, 0, 0);"><g id="shape-55634281-7241-808a-8003-ef3c5f2dc1d0"><g class="fills" id="fills-55634281-7241-808a-8003-ef3c5f2dc1d0"><path d="M10.55999755859375,11.8699951171875C8.488929748535156,11.8699951171875,6.80999755859375,10.191070556640625,6.80999755859375,8.1199951171875C6.80999755859375,6.048919677734375,8.488929748535156,4.3699951171875,10.55999755859375,4.3699951171875C12.631065368652344,4.3699951171875,14.30999755859375,6.048919677734375,14.30999755859375,8.1199951171875C14.30450439453125,10.18878173828125,12.6287841796875,11.864501953125,10.55999755859375,11.8699951171875ZM10.55999755859375,5.8699951171875C9.317359924316406,5.8699951171875,8.30999755859375,6.877349853515625,8.30999755859375,8.1199951171875C8.30999755859375,9.362640380859375,9.317359924316406,10.3699951171875,10.55999755859375,10.3699951171875C11.802642822265625,10.3699951171875,12.80999755859375,9.362640380859375,12.80999755859375,8.1199951171875C12.80999755859375,6.877349853515625,11.802642822265625,5.8699951171875,10.55999755859375,5.8699951171875Z"/></g></g><g id="shape-55634281-7241-808a-8003-ef3c5f2e54ce"><g class="fills" id="fills-55634281-7241-808a-8003-ef3c5f2e54ce"><path d="M3.55999755859375,18.8699951171875C3.1457901000976562,18.8699951171875,2.80999755859375,18.534210205078125,2.80999755859375,18.1199951171875C2.80999755859375,13.3699951171875,8.239997863769531,13.3699951171875,10.55999755859375,13.3699951171875C11.279998779296875,13.3699951171875,11.919998168945312,13.3699951171875,12.5,13.44000244140625C12.910659790039062,13.471954345703125,13.218704223632812,13.8291015625,13.19000244140625,14.239990234375C13.15289306640625,14.65216064453125,12.792831420898438,14.958892822265625,12.379997253417969,14.92999267578125C11.839996337890625,14.92999267578125,11.239997863769531,14.8699951171875,10.55999755859375,14.8699951171875C5.379997253417969,14.8699951171875,4.30999755859375,16.170013427734375,4.30999755859375,18.1199951171875C4.312721252441406,18.319732666015625,4.2345733642578125,18.5120849609375,4.093330383300781,18.6533203125C3.9520797729492188,18.794586181640625,3.759735107421875,18.872711181640625,3.55999755859375,18.8699951171875Z"/></g></g><g id="shape-55634281-7241-808a-8003-ef3c5f2f3047"><g class="fills" id="fills-55634281-7241-808a-8003-ef3c5f2f3047"><path d="M12.669998168945312,19.6300048828125C12.471153259277344,19.62982177734375,12.280517578125,19.550689697265625,12.139999389648438,19.410003662109375C11.979995727539062,19.257537841796875,11.898887634277344,19.040008544921875,11.919998168945312,18.82000732421875L12.080001831054688,16.899993896484375C12.092361450195312,16.72344970703125,12.166740417480469,16.556976318359375,12.290000915527344,16.42999267578125L17.80999755859375,10.910003662109375C18.599891662597656,10.17822265625,19.820106506347656,10.17822265625,20.610000610351562,10.910003662109375C20.989334106445312,11.292327880859375,21.198440551757812,11.811492919921875,21.19000244140625,12.350006103515625C21.19786834716797,12.846282958984375,21.007049560546875,13.32513427734375,20.660003662109375,13.67999267578125L15.139999389648438,19.20001220703125C15.017570495605469,19.32550048828125,14.85455322265625,19.403472900390625,14.680000305175781,19.420013427734375L12.739997863769531,19.600006103515625ZM14.610000610351562,18.70001220703125L14.610000610351562,18.70001220703125ZM13.550003051757812,17.290008544921875L13.489997863769531,18.04998779296875L14.269996643066406,17.980010986328125L19.599998474121094,12.649993896484375C19.662940979003906,12.574554443359375,19.695083618164062,12.478118896484375,19.69000244140625,12.3800048828125C19.68962860107422,12.24078369140625,19.640037536621094,12.106170654296875,19.550003051757812,12C19.34815216064453,11.850006103515625,19.07184600830078,11.850006103515625,18.87000274658203,12Z"/></g></g></g></g></g></g></g></g></g></svg>