<svg width="24" xmlns="http://www.w3.org/2000/svg" height="24" id="screenshot-55634281-7241-808a-8003-ef3c5f422301" viewBox="0 0 24 24" xmlns:xlink="http://www.w3.org/1999/xlink" fill="none" version="1.1"><g id="shape-55634281-7241-808a-8003-ef3c5f422301"><g class="frame-container-wrapper"><g class="frame-container-blur"><g class="frame-container-shadows"><g fill="none"><g class="fills" id="fills-55634281-7241-808a-8003-ef3c5f422301"><rect rx="0" ry="0" x="0" y="0" width="24" height="24" transform="matrix(1.000000, 0.000000, 0.000000, 1.000000, 0.000000, 0.000000)" class="frame-background"/></g><g class="frame-children"><g id="shape-55634281-7241-808a-8003-ef3c5f425048" style="display: none;"><g class="fills" id="fills-55634281-7241-808a-8003-ef3c5f425048"><rect width="24" height="24" x="0" transform="matrix(1.000000, 0.000000, 0.000000, 1.000000, 0.000000, 0.000000)" style="fill: none;" ry="0" fill="none" rx="0" y="0"/></g></g><g id="shape-55634281-7241-808a-8003-ef3c5f42b75c" rx="0" ry="0" style="fill: rgb(0, 0, 0);"><g id="shape-55634281-7241-808a-8003-ef3c5f4339f4"><g class="fills" id="fills-55634281-7241-808a-8003-ef3c5f4339f4"><path d="M14,12.25C11.928924560546875,12.25,10.25,10.571075439453125,10.25,8.5C10.25,6.428924560546875,11.928924560546875,4.75,14,4.75C16.071075439453125,4.75,17.75,6.428924560546875,17.75,8.5C17.75,10.571075439453125,16.071075439453125,12.25,14,12.25ZM14,6.25C12.757354736328125,6.25,11.75,7.257354736328125,11.75,8.5C11.75,9.742645263671875,12.757354736328125,10.75,14,10.75C15.242645263671875,10.75,16.25,9.742645263671875,16.25,8.5C16.25,7.257354736328125,15.242645263671875,6.25,14,6.25Z"/></g></g><g id="shape-55634281-7241-808a-8003-ef3c5f437e03"><g class="fills" id="fills-55634281-7241-808a-8003-ef3c5f437e03"><path d="M21,19.25C20.588043212890625,19.24462890625,20.25537109375,18.911956787109375,20.25,18.5C20.25,16.54998779296875,19.19000244140625,15.25,14,15.25C8.80999755859375,15.25,7.75,16.54998779296875,7.75,18.5C7.75,18.914215087890625,7.414215087890625,19.25,7,19.25C6.585784912109375,19.25,6.25,18.914215087890625,6.25,18.5C6.25,13.75,11.67999267578125,13.75,14,13.75C16.32000732421875,13.75,21.75,13.75,21.75,18.5C21.74462890625,18.911956787109375,21.411956787109375,19.24462890625,21,19.25Z"/></g></g><g id="shape-55634281-7241-808a-8003-ef3c5f43a828"><g class="fills" id="fills-55634281-7241-808a-8003-ef3c5f43a828"><path d="M8.32000732421875,13.05999755859375L8,13.05999755859375C6.3431396484375,12.89984130859375,5.129852294921875,11.426849365234375,5.290008544921875,9.769989013671875C5.450164794921875,8.1131591796875,6.92315673828125,6.89984130859375,8.579986572265625,7.05999755859375C8.85797119140625,7.07196044921875,9.106475830078125,7.236785888671875,9.2255859375,7.48822021484375C9.344696044921875,7.73968505859375,9.3148193359375,8.036376953125,9.147979736328125,8.259033203125C8.981170654296875,8.481689453125,8.70477294921875,8.59368896484375,8.42999267578125,8.54998779296875C8.03558349609375,8.51068115234375,7.642120361328125,8.633392333984375,7.339996337890625,8.8900146484375C7.033203125,9.137451171875,6.838653564453125,9.49774169921875,6.79998779296875,9.8900146484375C6.75823974609375,10.28717041015625,6.877655029296875,10.684478759765625,7.131439208984375,10.9927978515625C7.38525390625,11.301116943359375,7.752197265625,11.494659423828125,8.149993896484375,11.529998779296875C8.47552490234375,11.557861328125,8.80145263671875,11.480743408203125,9.079986572265625,11.30999755859375C9.4334716796875,11.09185791015625,9.8968505859375,11.2015380859375,10.114990234375,11.55499267578125C10.333160400390625,11.908447265625,10.22344970703125,12.371856689453125,9.8699951171875,12.589996337890625C9.40618896484375,12.88580322265625,8.8699951171875,13.04840087890625,8.32000732421875,13.05999755859375Z"/></g></g><g id="shape-55634281-7241-808a-8003-ef3c5f440af5"><g class="fills" id="fills-55634281-7241-808a-8003-ef3c5f440af5"><path d="M3,18.5C2.588043212890625,18.49462890625,2.25537109375,18.161956787109375,2.25,17.75C2.25,15.04998779296875,2.970001220703125,13.25,6.5,13.25C6.914215087890625,13.25,7.25,13.585784912109375,7.25,14C7.25,14.414215087890625,6.914215087890625,14.75,6.5,14.75C4.149993896484375,14.75,3.75,15.5,3.75,17.75C3.74462890625,18.161956787109375,3.411956787109375,18.49462890625,3,18.5Z"/></g></g></g></g></g></g></g></g></g></svg>